# xmcd
#
# Track frame offsets:
#	150
#	19602
#	35707
#	50547
#	67677
#	84490
#	99960
#	112890
#	127020
#	144502
#
# Disc length: 1949
#
# Revision: 1
# Processed by: cddbd v1.5.1PL0 Copyright (c) Steve Scherf et al.
# Submitted via: VisiTrax 2.9.5.180 - For more info visit www.synapsa.com
# Normalized: r0:DSETVAR1
#
DISCID=7a079b0a
DTITLE=Various Artist - CDX 86 June 1994
DYEAR=1994
DGENRE=
TTITLE0=Tim McGraw - Don't take the girl
TTITLE1=Confederate Railroad - Elvis and Andy
TTITLE2=Greg Holland - Let me drive
TTITLE3=Kathy Mattea - Nobody's gonna rain on our parade
TTITLE4=Michelle Wright - One good man
TTITLE5=George Strait - The man in love with you
TTITLE6=Joe Diffie - Third rock from the sun
TTITLE7=Vince Gill - What the cowgirls do
TTITLE8=Kim Hill - Wise beyond her tears
TTITLE9=John Anderson - Boating safety
EXTD=
EXTT0=
EXTT1=
EXTT2=
EXTT3=
EXTT4=
EXTT5=
EXTT6=
EXTT7=
EXTT8=
EXTT9=
PLAYORDER=
